<?xml version="1.0" encoding="iso-8859-1"?>
<!-- Generator: Adobe Illustrator 19.0.0, SVG Export Plug-In . SVG Version: 6.00 Build 0)  -->
<svg version="1.1" id="Capa_1" xmlns="http://www.w3.org/2000/svg" xmlns:xlink="http://www.w3.org/1999/xlink" x="0px" y="0px"
	 viewBox="0 0 303.99 303.99" style="enable-background:new 0 0 303.99 303.99;" xml:space="preserve">
<path style="fill:#F6A6A1;" d="M161.17,75.99l90.4,62.4c1.6,1.2,3.2,2.4,4.4,4.4c5.2,7.6,3.2,17.6-4,22.8l-90.8,62.4l-89.2,62
	c-2.8,2.4-6.4,3.6-10.4,3.6c-9.2,0-16.4-7.2-16.4-16.4v-125.2V26.79l0,0c0-3.2,0.8-6.4,2.8-9.2c5.2-7.6,15.2-9.2,22.8-4
	L161.17,75.99z"/>
<path style="fill:#5F717F;" d="M61.57,303.99c3.2,0,6-0.4,8.8-1.6c2.8-0.8,5.2-2.4,7.6-4l89.2-61.6l90-62c0.4-0.4,1.2-0.8,1.6-1.2
	c5.6-4,9.2-10,10.4-16.4c1.2-6.4,0-13.2-3.6-19.2c-0.4-0.4-0.8-1.2-1.2-1.6c-0.8-1.2-1.6-2-2.8-3.2c-1.2-1.2-2.4-2.4-4-3.2l0,0
	l-90.4-62.4l-90.8-62.8l0,0c-6-4-13.2-5.6-20-4.4s-12.8,4.8-17.2,11.2l0,0c-1.6,2.4-2.8,4.8-3.6,7.2c-0.8,2-1.2,4-1.2,6.4
	c0,0.4,0,1.2,0,1.6v125.2v125.2c0,7.2,2.8,14,8,18.8l0,0C47.57,300.79,53.97,303.99,61.57,303.99z M55.17,151.99v-124
	c0-0.4,0-0.8,0-1.2v-0.4c0-0.4,0-0.8,0.4-1.2c0-0.4,0.4-0.8,0.4-1.2c0-0.4,0.4-0.4,0.4-0.8c0.8-1.2,2.4-2,3.6-2c1.2-0.4,2.8,0,4,0.8
	c0.4,0.4,0.8,0.4,1.2,0.8l90,62l90.4,62.4l0,0l0,0c0.4,0.4,0.8,0.4,0.8,0.8c0.4,0.4,0.4,0.4,0.8,0.8l0,0c0.8,1.2,1.2,3.2,0.8,4.4
	c-0.4,1.6-1.2,2.8-2.4,4l0,0l-90,62.4l-89.6,62c-0.4,0-0.4,0.4-0.8,0.4c-0.4,0.4-1.2,0.8-1.6,1.2c-0.8,0.4-1.2,0.4-2,0.4
	c-1.6,0-3.2-0.8-4.4-1.6l0,0c-1.2-1.2-1.6-2.8-1.6-4.4v-125.6H55.17z"/>
<g>
</g>
<g>
</g>
<g>
</g>
<g>
</g>
<g>
</g>
<g>
</g>
<g>
</g>
<g>
</g>
<g>
</g>
<g>
</g>
<g>
</g>
<g>
</g>
<g>
</g>
<g>
</g>
<g>
</g>
</svg>
