<?xml version="1.0" encoding="iso-8859-1"?>
<!-- Generator: Adobe Illustrator 19.0.0, SVG Export Plug-In . SVG Version: 6.00 Build 0)  -->
<svg version="1.1" id="Capa_1" xmlns="http://www.w3.org/2000/svg" xmlns:xlink="http://www.w3.org/1999/xlink" x="0px" y="0px"
	 viewBox="0 0 306.8 306.8" style="enable-background:new 0 0 306.8 306.8;" xml:space="preserve">
<g>
	<path style="fill:#BEDEF4;" d="M46.8,10.4h72c2.8,0,4.8,2.4,4.8,4.8v276.4c0,2.8-2.4,4.8-4.8,4.8h-72c-2.8,0-4.8-2.4-4.8-4.8V15.2
		C41.6,12.8,44,10.4,46.8,10.4z"/>
	<path style="fill:#BEDEF4;" d="M188.8,10.4h72c2.8,0,4.8,2.4,4.8,4.8v276.4c0,2.8-2.4,4.8-4.8,4.8h-72c-2.8,0-4.8-2.4-4.8-4.8V15.2
		C183.6,12.8,186,10.4,188.8,10.4z"/>
</g>
<g>
	<path style="fill:#5F717F;" d="M118.4,0h-72c-4.4,0-8,1.6-10.8,4.4l0,0c-2.8,2.8-4.4,6.4-4.4,10.8v276.4c0,4,1.6,8,4.4,10.8l0,0
		l0,0c2.8,2.8,6.4,4.4,10.8,4.4h72c4,0,8-1.6,10.8-4.4l0,0l0,0c2.8-2.8,4.4-6.4,4.4-10.8V15.2c0-4-1.6-8-4.4-10.8l0,0
		C126.4,2,122.8,0,118.4,0z M113.2,286.4H52V20.8h61.2L113.2,286.4L113.2,286.4z"/>
	<path style="fill:#5F717F;" d="M260.4,0h-72c-4.4,0-8,1.6-10.8,4.4l0,0c-2.8,2.8-4.4,6.4-4.4,10.8v276.4c0,4,1.6,8,4.4,10.8l0,0
		l0,0c2.8,2.8,6.4,4.4,10.8,4.4h72c4,0,8-1.6,10.8-4.4l0,0l0,0c2.8-2.8,4.4-6.4,4.4-10.8V15.2c0-4-1.6-8-4.4-10.8l0,0
		C268.8,2,264.8,0,260.4,0z M255.2,286.4H194V20.8h61.2V286.4z"/>
</g>
<g>
</g>
<g>
</g>
<g>
</g>
<g>
</g>
<g>
</g>
<g>
</g>
<g>
</g>
<g>
</g>
<g>
</g>
<g>
</g>
<g>
</g>
<g>
</g>
<g>
</g>
<g>
</g>
<g>
</g>
</svg>
